<svg xmlns="http://www.w3.org/2000/svg" xmlns:xlink="http://www.w3.org/1999/xlink" width="500" zoomAndPan="magnify" viewBox="0 0 375 374.999991" height="500" preserveAspectRatio="xMidYMid meet" version="1.0"><defs><g/></defs><path fill="#ff6801" d="M 69.152344 219.816406 C 84.386719 213.253906 110.707031 215.066406 124.582031 224.117188 C 129.636719 217.855469 127.902344 202.773438 122.09375 201.039062 C 126.089844 185.726562 118.097656 152.996094 137.480469 151.941406 C 145.246094 160.234375 150.074219 141.832031 137.707031 146.285156 C 112.140625 148.746094 121.054688 180.566406 115.078125 199.453125 C 93.660156 194.777344 57.761719 205.035156 65.078125 210.765625 C 86.34375 205.035156 112.589844 198.171875 122.09375 217.78125 C 111.535156 207.222656 72.46875 209.105469 69.148438 219.816406 Z M 69.152344 219.816406 " fill-opacity="1" fill-rule="nonzero"/><path fill="#ff6801" d="M 70.734375 200.359375 C 53.765625 186.105469 15.492188 144.5625 116.664062 164.835938 C 42.226562 160.765625 51.957031 167.101562 70.734375 200.359375 Z M 70.734375 200.359375 " fill-opacity="1" fill-rule="nonzero"/><path fill="#ff6801" d="M 58.0625 177.734375 C 74.65625 172.226562 94.640625 170.117188 112.816406 173.660156 C 95.699219 172.453125 75.863281 176.675781 59.875 182.03125 Z M 58.0625 177.734375 " fill-opacity="1" fill-rule="nonzero"/><path fill="#ff6801" d="M 63.496094 188.140625 L 65.984375 192.890625 C 77.21875 185.652344 92.757812 182.484375 108.746094 183.390625 C 96.90625 177.28125 81.894531 179.542969 63.492188 188.140625 Z M 63.496094 188.140625 " fill-opacity="1" fill-rule="nonzero"/><path fill="#ff6801" d="M 58.96875 166.195312 L 65.53125 163.253906 C 75.03125 174.71875 80.011719 186.632812 83.179688 199 C 77.144531 187.386719 70.433594 176.902344 58.96875 166.195312 Z M 58.96875 166.195312 " fill-opacity="1" fill-rule="nonzero"/><path fill="#ff6801" d="M 72.542969 162.121094 L 78.199219 161.894531 C 86.796875 172.304688 90.417969 182.9375 90.417969 193.796875 C 87.175781 183.238281 82.121094 172.679688 72.542969 162.121094 Z M 72.542969 162.121094 " fill-opacity="1" fill-rule="nonzero"/><path fill="#ff6801" d="M 88.382812 162.347656 L 93.8125 162.574219 C 97.28125 171.546875 99.84375 180.070312 99.46875 189.5 C 98.261719 179.996094 93.886719 171.625 88.382812 162.347656 Z M 88.382812 162.347656 " fill-opacity="1" fill-rule="nonzero"/><path stroke-linecap="round" transform="matrix(0.0799934, 0, 0, 0.0799934, 65.983044, 174.777176)" fill-opacity="1" fill="#ff6801" fill-rule="nonzero" stroke-linejoin="round" d="M 102.320013 514.644238 C 85.326421 514.888398 69.455969 519.722782 56.710775 529.635711 C 19.695997 558.349021 23.114249 618.9009 64.426256 664.705466 C 105.738264 710.558865 169.317736 724.427198 206.332514 695.665056 C 243.396124 666.951746 239.92904 606.399867 198.617033 560.546468 C 171.515184 530.465858 134.842231 514.204748 102.320013 514.644238 Z M 131.472812 572.070858 C 145.682971 571.826697 161.748752 579.542179 173.614967 593.752337 C 191.682866 615.384984 193.245495 643.902966 177.033218 657.478306 C 160.820941 671.004815 132.937777 664.510138 114.869878 642.877491 C 96.801978 621.244844 95.288181 592.67803 111.500459 579.102689 C 117.067325 574.463634 124.001492 572.168522 131.472812 572.070858 Z M 131.472812 572.070858 " stroke="#fffdff" stroke-width="9.127" stroke-opacity="1" stroke-miterlimit="4"/><path stroke-linecap="round" transform="matrix(0.0799934, 0, 0, 0.0799934, 65.983044, 174.777176)" fill-opacity="1" fill="#ff6801" fill-rule="nonzero" stroke-linejoin="round" d="M 607.195718 514.644238 C 590.202126 514.888398 574.331674 519.722782 561.58648 529.635711 C 524.571702 558.349021 527.989954 618.9009 569.301961 664.705466 C 610.613969 710.558865 674.193442 724.427198 711.208219 695.665056 C 748.271829 666.951746 744.804745 606.399867 703.492738 560.546468 C 676.390889 530.465858 639.717936 514.204748 607.195718 514.644238 Z M 636.348517 572.070858 C 650.558676 571.826697 666.624457 579.542179 678.490672 593.752337 C 696.558571 615.384984 698.1212 643.902966 681.908923 657.478306 C 665.696646 671.004815 637.813482 664.510138 619.745583 642.877491 C 601.677684 621.244844 600.163887 592.67803 616.376164 579.102689 C 621.94303 574.463634 628.877197 572.168522 636.348517 572.070858 Z M 636.348517 572.070858 " stroke="#fffdff" stroke-width="9.127" stroke-opacity="1" stroke-miterlimit="4"/><g fill="#000000" fill-opacity="1"><g transform="translate(155.281834, 190.524568)"><g><path d="M 12.671875 -18.140625 C 11.191406 -18.140625 10.039062 -17.535156 9.21875 -16.328125 C 8.394531 -15.128906 7.984375 -13.46875 7.984375 -11.34375 C 7.984375 -6.945312 9.660156 -4.75 13.015625 -4.75 C 14.023438 -4.75 15.003906 -4.890625 15.953125 -5.171875 C 16.898438 -5.453125 17.851562 -5.789062 18.8125 -6.1875 L 18.8125 -0.953125 C 16.90625 -0.109375 14.75 0.3125 12.34375 0.3125 C 8.882812 0.3125 6.234375 -0.6875 4.390625 -2.6875 C 2.546875 -4.695312 1.625 -7.59375 1.625 -11.375 C 1.625 -13.75 2.070312 -15.832031 2.96875 -17.625 C 3.863281 -19.425781 5.144531 -20.804688 6.8125 -21.765625 C 8.488281 -22.734375 10.460938 -23.21875 12.734375 -23.21875 C 15.203125 -23.21875 17.5625 -22.679688 19.8125 -21.609375 L 17.921875 -16.734375 C 17.078125 -17.128906 16.234375 -17.460938 15.390625 -17.734375 C 14.546875 -18.003906 13.640625 -18.140625 12.671875 -18.140625 Z M 12.671875 -18.140625 "/></g></g></g><g fill="#000000" fill-opacity="1"><g transform="translate(176.087848, 190.524568)"><g><path d="M 23.890625 -11.46875 C 23.890625 -7.625 22.941406 -4.695312 21.046875 -2.6875 C 19.160156 -0.6875 16.398438 0.3125 12.765625 0.3125 C 9.171875 0.3125 6.414062 -0.691406 4.5 -2.703125 C 2.582031 -4.722656 1.625 -7.65625 1.625 -11.5 C 1.625 -15.3125 2.578125 -18.222656 4.484375 -20.234375 C 6.390625 -22.242188 9.160156 -23.25 12.796875 -23.25 C 16.429688 -23.25 19.1875 -22.25 21.0625 -20.25 C 22.945312 -18.257812 23.890625 -15.332031 23.890625 -11.46875 Z M 8.140625 -11.46875 C 8.140625 -7.050781 9.679688 -4.84375 12.765625 -4.84375 C 14.328125 -4.84375 15.484375 -5.378906 16.234375 -6.453125 C 16.992188 -7.523438 17.375 -9.195312 17.375 -11.46875 C 17.375 -13.757812 16.988281 -15.445312 16.21875 -16.53125 C 15.457031 -17.625 14.316406 -18.171875 12.796875 -18.171875 C 9.691406 -18.171875 8.140625 -15.9375 8.140625 -11.46875 Z M 8.140625 -11.46875 "/></g></g></g><g fill="#000000" fill-opacity="1"><g transform="translate(201.637437, 190.524568)"><g><path d="M 12.453125 0 L 7.765625 -16.484375 L 7.625 -16.484375 C 7.84375 -13.679688 7.953125 -11.5 7.953125 -9.9375 L 7.953125 0 L 2.46875 0 L 2.46875 -22.890625 L 10.703125 -22.890625 L 15.484375 -6.640625 L 15.609375 -6.640625 L 20.296875 -22.890625 L 28.546875 -22.890625 L 28.546875 0 L 22.859375 0 L 22.859375 -10.03125 C 22.859375 -10.550781 22.863281 -11.128906 22.875 -11.765625 C 22.894531 -12.410156 22.96875 -13.972656 23.09375 -16.453125 L 22.953125 -16.453125 L 18.328125 0 Z M 12.453125 0 "/></g></g></g><g fill="#000000" fill-opacity="1"><g transform="translate(232.635099, 190.524568)"><g><path d="M 19.078125 -15.609375 C 19.078125 -13.046875 18.320312 -11.066406 16.8125 -9.671875 C 15.3125 -8.285156 13.171875 -7.59375 10.390625 -7.59375 L 8.65625 -7.59375 L 8.65625 0 L 2.46875 0 L 2.46875 -22.890625 L 10.390625 -22.890625 C 13.285156 -22.890625 15.457031 -22.253906 16.90625 -20.984375 C 18.351562 -19.722656 19.078125 -17.929688 19.078125 -15.609375 Z M 8.65625 -12.640625 L 9.78125 -12.640625 C 10.707031 -12.640625 11.445312 -12.898438 12 -13.421875 C 12.550781 -13.941406 12.828125 -14.660156 12.828125 -15.578125 C 12.828125 -17.117188 11.96875 -17.890625 10.25 -17.890625 L 8.65625 -17.890625 Z M 8.65625 -12.640625 "/></g></g></g><g fill="#000000" fill-opacity="1"><g transform="translate(252.893166, 190.524568)"><g><path d="M 16.515625 0 L 15.390625 -4.296875 L 7.953125 -4.296875 L 6.796875 0 L 0 0 L 7.46875 -22.984375 L 15.71875 -22.984375 L 23.28125 0 Z M 14.109375 -9.359375 L 13.125 -13.125 C 12.894531 -13.957031 12.613281 -15.035156 12.28125 -16.359375 C 11.945312 -17.679688 11.726562 -18.628906 11.625 -19.203125 C 11.53125 -18.671875 11.34375 -17.796875 11.0625 -16.578125 C 10.789062 -15.359375 10.179688 -12.953125 9.234375 -9.359375 Z M 14.109375 -9.359375 "/></g></g></g><g fill="#000000" fill-opacity="1"><g transform="translate(276.172731, 190.524568)"><g><path d="M 12.671875 -18.140625 C 11.191406 -18.140625 10.039062 -17.535156 9.21875 -16.328125 C 8.394531 -15.128906 7.984375 -13.46875 7.984375 -11.34375 C 7.984375 -6.945312 9.660156 -4.75 13.015625 -4.75 C 14.023438 -4.75 15.003906 -4.890625 15.953125 -5.171875 C 16.898438 -5.453125 17.851562 -5.789062 18.8125 -6.1875 L 18.8125 -0.953125 C 16.90625 -0.109375 14.75 0.3125 12.34375 0.3125 C 8.882812 0.3125 6.234375 -0.6875 4.390625 -2.6875 C 2.546875 -4.695312 1.625 -7.59375 1.625 -11.375 C 1.625 -13.75 2.070312 -15.832031 2.96875 -17.625 C 3.863281 -19.425781 5.144531 -20.804688 6.8125 -21.765625 C 8.488281 -22.734375 10.460938 -23.21875 12.734375 -23.21875 C 15.203125 -23.21875 17.5625 -22.679688 19.8125 -21.609375 L 17.921875 -16.734375 C 17.078125 -17.128906 16.234375 -17.460938 15.390625 -17.734375 C 14.546875 -18.003906 13.640625 -18.140625 12.671875 -18.140625 Z M 12.671875 -18.140625 "/></g></g></g><g fill="#000000" fill-opacity="1"><g transform="translate(296.978746, 190.524568)"><g><path d="M 12.578125 0 L 6.390625 0 L 6.390625 -17.828125 L 0.796875 -17.828125 L 0.796875 -22.890625 L 18.140625 -22.890625 L 18.140625 -17.828125 L 12.578125 -17.828125 Z M 12.578125 0 "/></g></g></g><path stroke-linecap="butt" transform="matrix(0.75, 0, 0, 0.75, 121.579773, 199.311417)" fill="none" stroke-linejoin="miter" d="M -0.00219669 1.501445 L 298.154073 1.501445 " stroke="#ff6801" stroke-width="3" stroke-opacity="1" stroke-miterlimit="4"/><g fill="#000000" fill-opacity="1"><g transform="translate(136.115794, 217.01699)"><g><path d="M 6.828125 -2.046875 C 6.828125 -1.742188 6.867188 -1.519531 6.953125 -1.375 C 7.046875 -1.238281 7.195312 -1.128906 7.40625 -1.046875 L 7.015625 0.1875 C 6.578125 0.144531 6.21875 0.0390625 5.9375 -0.125 C 5.664062 -0.300781 5.457031 -0.570312 5.3125 -0.9375 C 5.039062 -0.539062 4.707031 -0.25 4.3125 -0.0625 C 3.925781 0.125 3.488281 0.21875 3 0.21875 C 2.226562 0.21875 1.617188 0 1.171875 -0.4375 C 0.734375 -0.875 0.515625 -1.445312 0.515625 -2.15625 C 0.515625 -2.988281 0.816406 -3.625 1.421875 -4.0625 C 2.023438 -4.507812 2.894531 -4.734375 4.03125 -4.734375 L 4.984375 -4.734375 L 4.984375 -5.171875 C 4.984375 -5.671875 4.867188 -6.019531 4.640625 -6.21875 C 4.410156 -6.414062 4.046875 -6.515625 3.546875 -6.515625 C 2.984375 -6.515625 2.300781 -6.378906 1.5 -6.109375 L 1.0625 -7.375 C 2.019531 -7.75 2.953125 -7.9375 3.859375 -7.9375 C 5.835938 -7.9375 6.828125 -7.050781 6.828125 -5.28125 Z M 3.5 -1.140625 C 4.132812 -1.140625 4.628906 -1.453125 4.984375 -2.078125 L 4.984375 -3.640625 L 4.21875 -3.640625 C 3.007812 -3.640625 2.40625 -3.191406 2.40625 -2.296875 C 2.40625 -1.929688 2.492188 -1.644531 2.671875 -1.4375 C 2.859375 -1.238281 3.132812 -1.140625 3.5 -1.140625 Z M 3.5 -1.140625 "/></g></g></g><g fill="#000000" fill-opacity="1"><g transform="translate(144.071332, 217.01699)"><g><path d="M 5.234375 -7.9375 C 5.921875 -7.9375 6.457031 -7.726562 6.84375 -7.3125 C 7.226562 -6.894531 7.421875 -6.316406 7.421875 -5.578125 L 7.421875 0 L 5.546875 0 L 5.546875 -5.296875 C 5.546875 -5.753906 5.46875 -6.070312 5.3125 -6.25 C 5.15625 -6.4375 4.921875 -6.53125 4.609375 -6.53125 C 4.285156 -6.53125 3.992188 -6.429688 3.734375 -6.234375 C 3.484375 -6.035156 3.234375 -5.742188 2.984375 -5.359375 L 2.984375 0 L 1.125 0 L 1.125 -7.71875 L 2.734375 -7.71875 L 2.890625 -6.703125 C 3.515625 -7.523438 4.296875 -7.9375 5.234375 -7.9375 Z M 5.234375 -7.9375 "/></g></g></g><g fill="#000000" fill-opacity="1"><g transform="translate(152.536833, 217.01699)"><g><path d="M 4.859375 0.03125 C 4.546875 0.976562 4.070312 1.71875 3.4375 2.25 C 2.8125 2.78125 1.945312 3.085938 0.84375 3.171875 L 0.65625 1.828125 C 1.164062 1.742188 1.570312 1.628906 1.875 1.484375 C 2.175781 1.347656 2.421875 1.160156 2.609375 0.921875 C 2.796875 0.691406 2.96875 0.382812 3.125 0 L 2.484375 0 L 0.03125 -7.71875 L 2.015625 -7.71875 L 3.6875 -1.234375 L 5.4375 -7.71875 L 7.359375 -7.71875 Z M 4.859375 0.03125 "/></g></g></g><g fill="#000000" fill-opacity="1"><g transform="translate(159.909543, 217.01699)"><g/></g></g><g fill="#000000" fill-opacity="1"><g transform="translate(163.552185, 217.01699)"><g><path d="M 5.109375 -7.9375 C 6.085938 -7.9375 6.804688 -7.578125 7.265625 -6.859375 C 7.734375 -6.148438 7.96875 -5.15625 7.96875 -3.875 C 7.96875 -3.082031 7.847656 -2.375 7.609375 -1.75 C 7.378906 -1.132812 7.03125 -0.648438 6.5625 -0.296875 C 6.101562 0.046875 5.554688 0.21875 4.921875 0.21875 C 4.109375 0.21875 3.460938 -0.0625 2.984375 -0.625 L 2.984375 2.96875 L 1.125 3.171875 L 1.125 -7.71875 L 2.75 -7.71875 L 2.859375 -6.765625 C 3.160156 -7.148438 3.503906 -7.441406 3.890625 -7.640625 C 4.273438 -7.835938 4.679688 -7.9375 5.109375 -7.9375 Z M 4.40625 -1.203125 C 5.476562 -1.203125 6.015625 -2.085938 6.015625 -3.859375 C 6.015625 -4.804688 5.894531 -5.488281 5.65625 -5.90625 C 5.414062 -6.320312 5.050781 -6.53125 4.5625 -6.53125 C 4.25 -6.53125 3.957031 -6.4375 3.6875 -6.25 C 3.414062 -6.0625 3.179688 -5.804688 2.984375 -5.484375 L 2.984375 -2.015625 C 3.347656 -1.472656 3.820312 -1.203125 4.40625 -1.203125 Z M 4.40625 -1.203125 "/></g></g></g><g fill="#000000" fill-opacity="1"><g transform="translate(172.236245, 217.01699)"><g><path d="M 4.921875 -7.921875 C 5.203125 -7.921875 5.460938 -7.882812 5.703125 -7.8125 L 5.375 -6 C 5.144531 -6.0625 4.914062 -6.09375 4.6875 -6.09375 C 4.238281 -6.09375 3.878906 -5.925781 3.609375 -5.59375 C 3.347656 -5.269531 3.140625 -4.773438 2.984375 -4.109375 L 2.984375 0 L 1.125 0 L 1.125 -7.71875 L 2.734375 -7.71875 L 2.921875 -6.203125 C 3.097656 -6.753906 3.363281 -7.175781 3.71875 -7.46875 C 4.070312 -7.769531 4.472656 -7.921875 4.921875 -7.921875 Z M 4.921875 -7.921875 "/></g></g></g><g fill="#000000" fill-opacity="1"><g transform="translate(177.977058, 217.01699)"><g><path d="M 4.265625 -7.9375 C 5.410156 -7.9375 6.300781 -7.570312 6.9375 -6.84375 C 7.570312 -6.125 7.890625 -5.128906 7.890625 -3.859375 C 7.890625 -3.054688 7.742188 -2.34375 7.453125 -1.71875 C 7.160156 -1.101562 6.738281 -0.625 6.1875 -0.28125 C 5.644531 0.0507812 5 0.21875 4.25 0.21875 C 3.113281 0.21875 2.222656 -0.140625 1.578125 -0.859375 C 0.941406 -1.585938 0.625 -2.585938 0.625 -3.859375 C 0.625 -4.671875 0.769531 -5.378906 1.0625 -5.984375 C 1.351562 -6.597656 1.773438 -7.078125 2.328125 -7.421875 C 2.878906 -7.765625 3.523438 -7.9375 4.265625 -7.9375 Z M 4.265625 -6.515625 C 3.148438 -6.515625 2.59375 -5.628906 2.59375 -3.859375 C 2.59375 -2.953125 2.726562 -2.28125 3 -1.84375 C 3.28125 -1.414062 3.695312 -1.203125 4.25 -1.203125 C 4.8125 -1.203125 5.226562 -1.414062 5.5 -1.84375 C 5.78125 -2.28125 5.921875 -2.953125 5.921875 -3.859375 C 5.921875 -4.765625 5.78125 -5.429688 5.5 -5.859375 C 5.226562 -6.296875 4.816406 -6.515625 4.265625 -6.515625 Z M 4.265625 -6.515625 "/></g></g></g><g fill="#000000" fill-opacity="1"><g transform="translate(186.486281, 217.01699)"><g><path d="M 7.609375 -10.796875 L 7.609375 0 L 5.96875 0 L 5.828125 -0.984375 C 5.585938 -0.609375 5.28125 -0.3125 4.90625 -0.09375 C 4.53125 0.113281 4.101562 0.21875 3.625 0.21875 C 2.6875 0.21875 1.960938 -0.144531 1.453125 -0.875 C 0.953125 -1.601562 0.703125 -2.59375 0.703125 -3.84375 C 0.703125 -4.632812 0.828125 -5.335938 1.078125 -5.953125 C 1.328125 -6.566406 1.6875 -7.050781 2.15625 -7.40625 C 2.632812 -7.757812 3.1875 -7.9375 3.8125 -7.9375 C 4.539062 -7.9375 5.1875 -7.65625 5.75 -7.09375 L 5.75 -11 Z M 4.15625 -1.203125 C 4.488281 -1.203125 4.78125 -1.28125 5.03125 -1.4375 C 5.28125 -1.59375 5.519531 -1.84375 5.75 -2.1875 L 5.75 -5.71875 C 5.519531 -5.988281 5.289062 -6.191406 5.0625 -6.328125 C 4.832031 -6.460938 4.566406 -6.53125 4.265625 -6.53125 C 3.773438 -6.53125 3.382812 -6.304688 3.09375 -5.859375 C 2.8125 -5.421875 2.671875 -4.753906 2.671875 -3.859375 C 2.671875 -2.910156 2.796875 -2.226562 3.046875 -1.8125 C 3.296875 -1.40625 3.664062 -1.203125 4.15625 -1.203125 Z M 4.15625 -1.203125 "/></g></g></g><g fill="#000000" fill-opacity="1"><g transform="translate(195.214062, 217.01699)"><g><path d="M 7.28125 0 L 5.671875 0 L 5.5625 -1.078125 C 5.28125 -0.640625 4.945312 -0.3125 4.5625 -0.09375 C 4.1875 0.113281 3.734375 0.21875 3.203125 0.21875 C 2.515625 0.21875 1.984375 0.0078125 1.609375 -0.40625 C 1.234375 -0.832031 1.046875 -1.421875 1.046875 -2.171875 L 1.046875 -7.71875 L 2.921875 -7.71875 L 2.921875 -2.40625 C 2.921875 -1.96875 2.992188 -1.65625 3.140625 -1.46875 C 3.296875 -1.289062 3.535156 -1.203125 3.859375 -1.203125 C 4.453125 -1.203125 4.972656 -1.5625 5.421875 -2.28125 L 5.421875 -7.71875 L 7.28125 -7.71875 Z M 7.28125 0 "/></g></g></g><g fill="#000000" fill-opacity="1"><g transform="translate(203.621279, 217.01699)"><g><path d="M 4.234375 -7.9375 C 4.734375 -7.9375 5.1875 -7.863281 5.59375 -7.71875 C 6 -7.570312 6.378906 -7.34375 6.734375 -7.03125 L 5.90625 -5.90625 C 5.644531 -6.101562 5.390625 -6.242188 5.140625 -6.328125 C 4.898438 -6.410156 4.632812 -6.453125 4.34375 -6.453125 C 3.1875 -6.453125 2.609375 -5.570312 2.609375 -3.8125 C 2.609375 -2.925781 2.757812 -2.285156 3.0625 -1.890625 C 3.363281 -1.492188 3.789062 -1.296875 4.34375 -1.296875 C 4.613281 -1.296875 4.863281 -1.335938 5.09375 -1.421875 C 5.320312 -1.515625 5.59375 -1.65625 5.90625 -1.84375 L 6.734375 -0.671875 C 6.003906 -0.078125 5.175781 0.21875 4.25 0.21875 C 3.507812 0.21875 2.863281 0.0546875 2.3125 -0.265625 C 1.769531 -0.597656 1.351562 -1.0625 1.0625 -1.65625 C 0.769531 -2.257812 0.625 -2.972656 0.625 -3.796875 C 0.625 -4.609375 0.769531 -5.328125 1.0625 -5.953125 C 1.351562 -6.578125 1.769531 -7.0625 2.3125 -7.40625 C 2.863281 -7.757812 3.503906 -7.9375 4.234375 -7.9375 Z M 4.234375 -7.9375 "/></g></g></g><g fill="#000000" fill-opacity="1"><g transform="translate(210.586015, 217.01699)"><g><path d="M 5.546875 -0.359375 C 5.265625 -0.171875 4.957031 -0.03125 4.625 0.0625 C 4.289062 0.164062 3.945312 0.21875 3.59375 0.21875 C 2.84375 0.207031 2.269531 -0.00390625 1.875 -0.421875 C 1.476562 -0.847656 1.28125 -1.472656 1.28125 -2.296875 L 1.28125 -6.375 L 0.078125 -6.375 L 0.078125 -7.71875 L 1.28125 -7.71875 L 1.28125 -9.421875 L 3.15625 -9.640625 L 3.15625 -7.71875 L 4.9375 -7.71875 L 4.75 -6.375 L 3.15625 -6.375 L 3.15625 -2.34375 C 3.15625 -1.96875 3.21875 -1.695312 3.34375 -1.53125 C 3.476562 -1.363281 3.6875 -1.28125 3.96875 -1.28125 C 4.25 -1.28125 4.554688 -1.375 4.890625 -1.5625 Z M 5.546875 -0.359375 "/></g></g></g><g fill="#000000" fill-opacity="1"><g transform="translate(216.049986, 217.01699)"><g/></g></g><g fill="#000000" fill-opacity="1"><g transform="translate(219.692628, 217.01699)"><g><path d="M 5.109375 -7.9375 C 6.085938 -7.9375 6.804688 -7.578125 7.265625 -6.859375 C 7.734375 -6.148438 7.96875 -5.15625 7.96875 -3.875 C 7.96875 -3.082031 7.847656 -2.375 7.609375 -1.75 C 7.378906 -1.132812 7.03125 -0.648438 6.5625 -0.296875 C 6.101562 0.046875 5.554688 0.21875 4.921875 0.21875 C 4.109375 0.21875 3.460938 -0.0625 2.984375 -0.625 L 2.984375 2.96875 L 1.125 3.171875 L 1.125 -7.71875 L 2.75 -7.71875 L 2.859375 -6.765625 C 3.160156 -7.148438 3.503906 -7.441406 3.890625 -7.640625 C 4.273438 -7.835938 4.679688 -7.9375 5.109375 -7.9375 Z M 4.40625 -1.203125 C 5.476562 -1.203125 6.015625 -2.085938 6.015625 -3.859375 C 6.015625 -4.804688 5.894531 -5.488281 5.65625 -5.90625 C 5.414062 -6.320312 5.050781 -6.53125 4.5625 -6.53125 C 4.25 -6.53125 3.957031 -6.4375 3.6875 -6.25 C 3.414062 -6.0625 3.179688 -5.804688 2.984375 -5.484375 L 2.984375 -2.015625 C 3.347656 -1.472656 3.820312 -1.203125 4.40625 -1.203125 Z M 4.40625 -1.203125 "/></g></g></g><g fill="#000000" fill-opacity="1"><g transform="translate(228.376688, 217.01699)"><g><path d="M 4.921875 -7.921875 C 5.203125 -7.921875 5.460938 -7.882812 5.703125 -7.8125 L 5.375 -6 C 5.144531 -6.0625 4.914062 -6.09375 4.6875 -6.09375 C 4.238281 -6.09375 3.878906 -5.925781 3.609375 -5.59375 C 3.347656 -5.269531 3.140625 -4.773438 2.984375 -4.109375 L 2.984375 0 L 1.125 0 L 1.125 -7.71875 L 2.734375 -7.71875 L 2.921875 -6.203125 C 3.097656 -6.753906 3.363281 -7.175781 3.71875 -7.46875 C 4.070312 -7.769531 4.472656 -7.921875 4.921875 -7.921875 Z M 4.921875 -7.921875 "/></g></g></g><g fill="#000000" fill-opacity="1"><g transform="translate(234.117501, 217.01699)"><g><path d="M 2.984375 -7.71875 L 2.984375 0 L 1.125 0 L 1.125 -7.71875 Z M 2.03125 -11.625 C 2.382812 -11.625 2.671875 -11.515625 2.890625 -11.296875 C 3.109375 -11.078125 3.21875 -10.804688 3.21875 -10.484375 C 3.21875 -10.160156 3.109375 -9.890625 2.890625 -9.671875 C 2.671875 -9.460938 2.382812 -9.359375 2.03125 -9.359375 C 1.695312 -9.359375 1.421875 -9.460938 1.203125 -9.671875 C 0.984375 -9.890625 0.875 -10.160156 0.875 -10.484375 C 0.875 -10.804688 0.984375 -11.078125 1.203125 -11.296875 C 1.421875 -11.515625 1.695312 -11.625 2.03125 -11.625 Z M 2.03125 -11.625 "/></g></g></g><g fill="#000000" fill-opacity="1"><g transform="translate(238.226402, 217.01699)"><g><path d="M 4.234375 -7.9375 C 4.734375 -7.9375 5.1875 -7.863281 5.59375 -7.71875 C 6 -7.570312 6.378906 -7.34375 6.734375 -7.03125 L 5.90625 -5.90625 C 5.644531 -6.101562 5.390625 -6.242188 5.140625 -6.328125 C 4.898438 -6.410156 4.632812 -6.453125 4.34375 -6.453125 C 3.1875 -6.453125 2.609375 -5.570312 2.609375 -3.8125 C 2.609375 -2.925781 2.757812 -2.285156 3.0625 -1.890625 C 3.363281 -1.492188 3.789062 -1.296875 4.34375 -1.296875 C 4.613281 -1.296875 4.863281 -1.335938 5.09375 -1.421875 C 5.320312 -1.515625 5.59375 -1.65625 5.90625 -1.84375 L 6.734375 -0.671875 C 6.003906 -0.078125 5.175781 0.21875 4.25 0.21875 C 3.507812 0.21875 2.863281 0.0546875 2.3125 -0.265625 C 1.769531 -0.597656 1.351562 -1.0625 1.0625 -1.65625 C 0.769531 -2.257812 0.625 -2.972656 0.625 -3.796875 C 0.625 -4.609375 0.769531 -5.328125 1.0625 -5.953125 C 1.351562 -6.578125 1.769531 -7.0625 2.3125 -7.40625 C 2.863281 -7.757812 3.503906 -7.9375 4.234375 -7.9375 Z M 4.234375 -7.9375 "/></g></g></g><g fill="#000000" fill-opacity="1"><g transform="translate(245.191138, 217.01699)"><g><path d="M 7.453125 -4.03125 C 7.453125 -3.9375 7.4375 -3.6875 7.40625 -3.28125 L 2.5625 -3.28125 C 2.625 -2.53125 2.816406 -1.992188 3.140625 -1.671875 C 3.472656 -1.359375 3.910156 -1.203125 4.453125 -1.203125 C 4.796875 -1.203125 5.117188 -1.253906 5.421875 -1.359375 C 5.722656 -1.472656 6.046875 -1.644531 6.390625 -1.875 L 7.15625 -0.8125 C 6.300781 -0.125 5.347656 0.21875 4.296875 0.21875 C 3.117188 0.21875 2.210938 -0.140625 1.578125 -0.859375 C 0.941406 -1.578125 0.625 -2.5625 0.625 -3.8125 C 0.625 -4.59375 0.757812 -5.296875 1.03125 -5.921875 C 1.300781 -6.546875 1.691406 -7.035156 2.203125 -7.390625 C 2.722656 -7.753906 3.335938 -7.9375 4.046875 -7.9375 C 5.128906 -7.9375 5.96875 -7.59375 6.5625 -6.90625 C 7.15625 -6.21875 7.453125 -5.257812 7.453125 -4.03125 Z M 5.59375 -4.578125 C 5.59375 -5.929688 5.09375 -6.609375 4.09375 -6.609375 C 3.632812 -6.609375 3.273438 -6.4375 3.015625 -6.09375 C 2.765625 -5.757812 2.613281 -5.222656 2.5625 -4.484375 L 5.59375 -4.484375 Z M 5.59375 -4.578125 "/></g></g></g><g fill="#000000" fill-opacity="1"><g transform="translate(253.190381, 217.01699)"><g/></g></g><g fill="#000000" fill-opacity="1"><g transform="translate(256.833022, 217.01699)"><g><path d="M 4.234375 -7.9375 C 4.734375 -7.9375 5.1875 -7.863281 5.59375 -7.71875 C 6 -7.570312 6.378906 -7.34375 6.734375 -7.03125 L 5.90625 -5.90625 C 5.644531 -6.101562 5.390625 -6.242188 5.140625 -6.328125 C 4.898438 -6.410156 4.632812 -6.453125 4.34375 -6.453125 C 3.1875 -6.453125 2.609375 -5.570312 2.609375 -3.8125 C 2.609375 -2.925781 2.757812 -2.285156 3.0625 -1.890625 C 3.363281 -1.492188 3.789062 -1.296875 4.34375 -1.296875 C 4.613281 -1.296875 4.863281 -1.335938 5.09375 -1.421875 C 5.320312 -1.515625 5.59375 -1.65625 5.90625 -1.84375 L 6.734375 -0.671875 C 6.003906 -0.078125 5.175781 0.21875 4.25 0.21875 C 3.507812 0.21875 2.863281 0.0546875 2.3125 -0.265625 C 1.769531 -0.597656 1.351562 -1.0625 1.0625 -1.65625 C 0.769531 -2.257812 0.625 -2.972656 0.625 -3.796875 C 0.625 -4.609375 0.769531 -5.328125 1.0625 -5.953125 C 1.351562 -6.578125 1.769531 -7.0625 2.3125 -7.40625 C 2.863281 -7.757812 3.503906 -7.9375 4.234375 -7.9375 Z M 4.234375 -7.9375 "/></g></g></g><g fill="#000000" fill-opacity="1"><g transform="translate(263.797759, 217.01699)"><g><path d="M 4.265625 -7.9375 C 5.410156 -7.9375 6.300781 -7.570312 6.9375 -6.84375 C 7.570312 -6.125 7.890625 -5.128906 7.890625 -3.859375 C 7.890625 -3.054688 7.742188 -2.34375 7.453125 -1.71875 C 7.160156 -1.101562 6.738281 -0.625 6.1875 -0.28125 C 5.644531 0.0507812 5 0.21875 4.25 0.21875 C 3.113281 0.21875 2.222656 -0.140625 1.578125 -0.859375 C 0.941406 -1.585938 0.625 -2.585938 0.625 -3.859375 C 0.625 -4.671875 0.769531 -5.378906 1.0625 -5.984375 C 1.351562 -6.597656 1.773438 -7.078125 2.328125 -7.421875 C 2.878906 -7.765625 3.523438 -7.9375 4.265625 -7.9375 Z M 4.265625 -6.515625 C 3.148438 -6.515625 2.59375 -5.628906 2.59375 -3.859375 C 2.59375 -2.953125 2.726562 -2.28125 3 -1.84375 C 3.28125 -1.414062 3.695312 -1.203125 4.25 -1.203125 C 4.8125 -1.203125 5.226562 -1.414062 5.5 -1.84375 C 5.78125 -2.28125 5.921875 -2.953125 5.921875 -3.859375 C 5.921875 -4.765625 5.78125 -5.429688 5.5 -5.859375 C 5.226562 -6.296875 4.816406 -6.515625 4.265625 -6.515625 Z M 4.265625 -6.515625 "/></g></g></g><g fill="#000000" fill-opacity="1"><g transform="translate(272.306981, 217.01699)"><g><path d="M 9.296875 -7.9375 C 9.921875 -7.9375 10.414062 -7.722656 10.78125 -7.296875 C 11.15625 -6.867188 11.34375 -6.296875 11.34375 -5.578125 L 11.34375 0 L 9.46875 0 L 9.46875 -5.296875 C 9.46875 -6.117188 9.1875 -6.53125 8.625 -6.53125 C 8.320312 -6.53125 8.0625 -6.4375 7.84375 -6.25 C 7.625 -6.0625 7.398438 -5.765625 7.171875 -5.359375 L 7.171875 0 L 5.3125 0 L 5.3125 -5.296875 C 5.3125 -6.117188 5.023438 -6.53125 4.453125 -6.53125 C 4.148438 -6.53125 3.890625 -6.4375 3.671875 -6.25 C 3.453125 -6.0625 3.222656 -5.765625 2.984375 -5.359375 L 2.984375 0 L 1.125 0 L 1.125 -7.71875 L 2.734375 -7.71875 L 2.890625 -6.703125 C 3.472656 -7.523438 4.210938 -7.9375 5.109375 -7.9375 C 5.554688 -7.9375 5.941406 -7.820312 6.265625 -7.59375 C 6.597656 -7.363281 6.835938 -7.046875 6.984375 -6.640625 C 7.296875 -7.054688 7.640625 -7.375 8.015625 -7.59375 C 8.390625 -7.820312 8.816406 -7.9375 9.296875 -7.9375 Z M 9.296875 -7.9375 "/></g></g></g><g fill="#000000" fill-opacity="1"><g transform="translate(284.691967, 217.01699)"><g><path d="M 5.109375 -7.9375 C 6.085938 -7.9375 6.804688 -7.578125 7.265625 -6.859375 C 7.734375 -6.148438 7.96875 -5.15625 7.96875 -3.875 C 7.96875 -3.082031 7.847656 -2.375 7.609375 -1.75 C 7.378906 -1.132812 7.03125 -0.648438 6.5625 -0.296875 C 6.101562 0.046875 5.554688 0.21875 4.921875 0.21875 C 4.109375 0.21875 3.460938 -0.0625 2.984375 -0.625 L 2.984375 2.96875 L 1.125 3.171875 L 1.125 -7.71875 L 2.75 -7.71875 L 2.859375 -6.765625 C 3.160156 -7.148438 3.503906 -7.441406 3.890625 -7.640625 C 4.273438 -7.835938 4.679688 -7.9375 5.109375 -7.9375 Z M 4.40625 -1.203125 C 5.476562 -1.203125 6.015625 -2.085938 6.015625 -3.859375 C 6.015625 -4.804688 5.894531 -5.488281 5.65625 -5.90625 C 5.414062 -6.320312 5.050781 -6.53125 4.5625 -6.53125 C 4.25 -6.53125 3.957031 -6.4375 3.6875 -6.25 C 3.414062 -6.0625 3.179688 -5.804688 2.984375 -5.484375 L 2.984375 -2.015625 C 3.347656 -1.472656 3.820312 -1.203125 4.40625 -1.203125 Z M 4.40625 -1.203125 "/></g></g></g><g fill="#000000" fill-opacity="1"><g transform="translate(293.376026, 217.01699)"><g><path d="M 6.828125 -2.046875 C 6.828125 -1.742188 6.867188 -1.519531 6.953125 -1.375 C 7.046875 -1.238281 7.195312 -1.128906 7.40625 -1.046875 L 7.015625 0.1875 C 6.578125 0.144531 6.21875 0.0390625 5.9375 -0.125 C 5.664062 -0.300781 5.457031 -0.570312 5.3125 -0.9375 C 5.039062 -0.539062 4.707031 -0.25 4.3125 -0.0625 C 3.925781 0.125 3.488281 0.21875 3 0.21875 C 2.226562 0.21875 1.617188 0 1.171875 -0.4375 C 0.734375 -0.875 0.515625 -1.445312 0.515625 -2.15625 C 0.515625 -2.988281 0.816406 -3.625 1.421875 -4.0625 C 2.023438 -4.507812 2.894531 -4.734375 4.03125 -4.734375 L 4.984375 -4.734375 L 4.984375 -5.171875 C 4.984375 -5.671875 4.867188 -6.019531 4.640625 -6.21875 C 4.410156 -6.414062 4.046875 -6.515625 3.546875 -6.515625 C 2.984375 -6.515625 2.300781 -6.378906 1.5 -6.109375 L 1.0625 -7.375 C 2.019531 -7.75 2.953125 -7.9375 3.859375 -7.9375 C 5.835938 -7.9375 6.828125 -7.050781 6.828125 -5.28125 Z M 3.5 -1.140625 C 4.132812 -1.140625 4.628906 -1.453125 4.984375 -2.078125 L 4.984375 -3.640625 L 4.21875 -3.640625 C 3.007812 -3.640625 2.40625 -3.191406 2.40625 -2.296875 C 2.40625 -1.929688 2.492188 -1.644531 2.671875 -1.4375 C 2.859375 -1.238281 3.132812 -1.140625 3.5 -1.140625 Z M 3.5 -1.140625 "/></g></g></g><g fill="#000000" fill-opacity="1"><g transform="translate(301.331564, 217.01699)"><g><path d="M 4.921875 -7.921875 C 5.203125 -7.921875 5.460938 -7.882812 5.703125 -7.8125 L 5.375 -6 C 5.144531 -6.0625 4.914062 -6.09375 4.6875 -6.09375 C 4.238281 -6.09375 3.878906 -5.925781 3.609375 -5.59375 C 3.347656 -5.269531 3.140625 -4.773438 2.984375 -4.109375 L 2.984375 0 L 1.125 0 L 1.125 -7.71875 L 2.734375 -7.71875 L 2.921875 -6.203125 C 3.097656 -6.753906 3.363281 -7.175781 3.71875 -7.46875 C 4.070312 -7.769531 4.472656 -7.921875 4.921875 -7.921875 Z M 4.921875 -7.921875 "/></g></g></g><g fill="#000000" fill-opacity="1"><g transform="translate(307.072378, 217.01699)"><g><path d="M 2.984375 -7.71875 L 2.984375 0 L 1.125 0 L 1.125 -7.71875 Z M 2.03125 -11.625 C 2.382812 -11.625 2.671875 -11.515625 2.890625 -11.296875 C 3.109375 -11.078125 3.21875 -10.804688 3.21875 -10.484375 C 3.21875 -10.160156 3.109375 -9.890625 2.890625 -9.671875 C 2.671875 -9.460938 2.382812 -9.359375 2.03125 -9.359375 C 1.695312 -9.359375 1.421875 -9.460938 1.203125 -9.671875 C 0.984375 -9.890625 0.875 -10.160156 0.875 -10.484375 C 0.875 -10.804688 0.984375 -11.078125 1.203125 -11.296875 C 1.421875 -11.515625 1.695312 -11.625 2.03125 -11.625 Z M 2.03125 -11.625 "/></g></g></g><g fill="#000000" fill-opacity="1"><g transform="translate(311.181278, 217.01699)"><g><path d="M 3.5625 -7.9375 C 4.59375 -7.9375 5.503906 -7.628906 6.296875 -7.015625 L 5.5625 -5.921875 C 4.90625 -6.335938 4.257812 -6.546875 3.625 -6.546875 C 3.257812 -6.546875 2.972656 -6.472656 2.765625 -6.328125 C 2.566406 -6.191406 2.46875 -6.003906 2.46875 -5.765625 C 2.46875 -5.597656 2.507812 -5.453125 2.59375 -5.328125 C 2.675781 -5.210938 2.832031 -5.101562 3.0625 -5 C 3.289062 -4.90625 3.628906 -4.796875 4.078125 -4.671875 C 4.910156 -4.441406 5.53125 -4.140625 5.9375 -3.765625 C 6.34375 -3.398438 6.546875 -2.890625 6.546875 -2.234375 C 6.546875 -1.460938 6.234375 -0.859375 5.609375 -0.421875 C 4.984375 0.00390625 4.210938 0.21875 3.296875 0.21875 C 2.660156 0.21875 2.082031 0.125 1.5625 -0.0625 C 1.039062 -0.257812 0.59375 -0.53125 0.21875 -0.875 L 1.15625 -1.921875 C 1.820312 -1.421875 2.519531 -1.171875 3.25 -1.171875 C 3.664062 -1.171875 4 -1.25 4.25 -1.40625 C 4.5 -1.570312 4.625 -1.800781 4.625 -2.09375 C 4.625 -2.320312 4.578125 -2.5 4.484375 -2.625 C 4.390625 -2.757812 4.222656 -2.878906 3.984375 -2.984375 C 3.742188 -3.085938 3.375 -3.210938 2.875 -3.359375 C 2.082031 -3.566406 1.5 -3.863281 1.125 -4.25 C 0.757812 -4.632812 0.578125 -5.113281 0.578125 -5.6875 C 0.578125 -6.113281 0.703125 -6.492188 0.953125 -6.828125 C 1.203125 -7.171875 1.550781 -7.441406 2 -7.640625 C 2.457031 -7.835938 2.976562 -7.9375 3.5625 -7.9375 Z M 3.5625 -7.9375 "/></g></g></g><g fill="#000000" fill-opacity="1"><g transform="translate(318.116872, 217.01699)"><g><path d="M 4.265625 -7.9375 C 5.410156 -7.9375 6.300781 -7.570312 6.9375 -6.84375 C 7.570312 -6.125 7.890625 -5.128906 7.890625 -3.859375 C 7.890625 -3.054688 7.742188 -2.34375 7.453125 -1.71875 C 7.160156 -1.101562 6.738281 -0.625 6.1875 -0.28125 C 5.644531 0.0507812 5 0.21875 4.25 0.21875 C 3.113281 0.21875 2.222656 -0.140625 1.578125 -0.859375 C 0.941406 -1.585938 0.625 -2.585938 0.625 -3.859375 C 0.625 -4.671875 0.769531 -5.378906 1.0625 -5.984375 C 1.351562 -6.597656 1.773438 -7.078125 2.328125 -7.421875 C 2.878906 -7.765625 3.523438 -7.9375 4.265625 -7.9375 Z M 4.265625 -6.515625 C 3.148438 -6.515625 2.59375 -5.628906 2.59375 -3.859375 C 2.59375 -2.953125 2.726562 -2.28125 3 -1.84375 C 3.28125 -1.414062 3.695312 -1.203125 4.25 -1.203125 C 4.8125 -1.203125 5.226562 -1.414062 5.5 -1.84375 C 5.78125 -2.28125 5.921875 -2.953125 5.921875 -3.859375 C 5.921875 -4.765625 5.78125 -5.429688 5.5 -5.859375 C 5.226562 -6.296875 4.816406 -6.515625 4.265625 -6.515625 Z M 4.265625 -6.515625 "/></g></g></g><g fill="#000000" fill-opacity="1"><g transform="translate(326.626095, 217.01699)"><g><path d="M 5.234375 -7.9375 C 5.921875 -7.9375 6.457031 -7.726562 6.84375 -7.3125 C 7.226562 -6.894531 7.421875 -6.316406 7.421875 -5.578125 L 7.421875 0 L 5.546875 0 L 5.546875 -5.296875 C 5.546875 -5.753906 5.46875 -6.070312 5.3125 -6.25 C 5.15625 -6.4375 4.921875 -6.53125 4.609375 -6.53125 C 4.285156 -6.53125 3.992188 -6.429688 3.734375 -6.234375 C 3.484375 -6.035156 3.234375 -5.742188 2.984375 -5.359375 L 2.984375 0 L 1.125 0 L 1.125 -7.71875 L 2.734375 -7.71875 L 2.890625 -6.703125 C 3.515625 -7.523438 4.296875 -7.9375 5.234375 -7.9375 Z M 5.234375 -7.9375 "/></g></g></g></svg>